<svg data-v-34bbb844="" xml:space="preserve" viewBox="0 0 120 120" version="1.1" xmlns="http://www.w3.org/2000/svg" class="stat-icon-svg mx-1"><path xmlns="http://www.w3.org/2000/svg" class="fill-primary" d="m65.371 7.334-1.7441 10.17a39.247 46.588 47.453 0 0-45.496 38.826h-10.168l-1.2598 7.3398h10.168a39.247 46.588 47.453 0 0 32.162 38.826l-1.7461 10.17h7.3418l1.7285-10.07a39.247 46.588 47.453 0 0 45.607-38.926h10.072l1.2598-7.3398h-10.168a39.247 46.588 47.453 0 0-32.162-38.826l1.7461-10.17zm-3.8379 22.346-2.3418 13.646h7.3418l2.3418-13.646a28.094 33.349 47.453 0 1 22.076 26.65h-13.646l-1.2617 7.3398h13.709a28.094 33.349 47.453 0 1-31.299 26.713l2.3555-13.709h-7.3418l-2.3418 13.646a28.094 33.349 47.453 0 1-22.076-26.65h13.646l1.2617-7.3398h-13.646a28.094 33.349 47.453 0 1 31.223-26.65z"></path></svg>