<svg data-v-34bbb844="" xml:space="preserve" viewBox="0 0 120 120" version="1.1" xmlns="http://www.w3.org/2000/svg" class="stat-icon-svg mx-1"><path xmlns="http://www.w3.org/2000/svg" class="fill-primary" d="m37.969 22.436a11.532 21.07 14.876 0 0-6.4062 2.7559 11.532 21.07 14.876 0 0-9.1504 17.82l-0.61328 3.3711h23.613l0.61524-3.3711a11.532 21.07 14.876 0 0-2.6562-17.82 11.532 21.07 14.876 0 0-5.4023-2.7559zm30.461 0a11.532 21.07 14.876 0 0-6.4062 2.7559 11.532 21.07 14.876 0 0-9.1504 17.82l-0.61524 3.3711h23.615l0.61328-3.3711a11.532 21.07 14.876 0 0-2.6562-17.82 11.532 21.07 14.876 0 0-5.4004-2.7559zm30.459 0a11.532 21.07 14.876 0 0-6.4062 2.7559 11.532 21.07 14.876 0 0-9.1504 17.82l-0.61523 3.3711h23.615l0.61524-3.3711a11.532 21.07 14.876 0 0-2.6562-17.82 11.532 21.07 14.876 0 0-5.4023-2.7559zm-77.863 28.184-8.5527 46.945h23.615l8.5527-46.945zm30.461 0-8.5547 46.945h23.615l8.5547-46.945zm30.459 0-8.5527 46.945h23.613l8.5547-46.945z"></path></svg>