<svg data-v-34bbb844="" xml:space="preserve" viewBox="0 0 120 120" version="1.1" xmlns="http://www.w3.org/2000/svg" class="stat-icon-svg mx-1"><path xmlns="http://www.w3.org/2000/svg" class="fill-secondary" d="m54.076 6.918-4.248 23.111-16.889-16.338 5.5195 22.84-22.074-8.0566 14.334 18.621-23.443 1.6172 20.668 11.182-20.758 11.014 23.43 1.8086-14.484 18.504 22.139-7.877-5.7051 22.795 17.021-16.201 4.0586 23.145 8.9609-21.723 13.121 19.492-0.65039-23.488 19.916 12.469-10.146-21.193 23.266 3.291-17.891-15.234 22.594-6.457-22.541-6.6387 18.014-15.088-23.293 3.1016 10.32-21.111-20.018 12.309 0.8418-23.482-13.279 19.385z"></path><path xmlns="http://www.w3.org/2000/svg" class="fill-primary" d="m71.203 24.184-30.023 42.207 7.6992 7.3984 7.5996 7.4961 41.385-31.148-1.2012-25.434zm-50.588 33.621-5.9766 6.1406 17.016 16.566-17.381 11.227 8.7949 8.5605 8.7949 8.5625 10.756-17.676 17.02 16.566 5.9766-6.1406-22.5-21.904z"></path></svg>