<svg data-v-34bbb844="" xml:space="preserve" viewBox="0 0 120 120" version="1.1" xmlns="http://www.w3.org/2000/svg" class="stat-icon-svg mx-1"><path xmlns="http://www.w3.org/2000/svg" class="fill-secondary" d="m63.646 1.998-8.2422 25.188-14.74-18.125 1.9004 25.047-21.482-9.1582 11.717 20.578-24.51 1.3906 19.508 12.551-23.299 11.699 23.924 2.3535-18.059 19.986 24.203-8.25-9.6973 24.816 20.301-17.43 0.33984 25.357 12.885-23.594 10.32 21.512 3.2422-25.678 18.518 13.945-6.9629-23.322 23.51 3.9707-15.961-16.934 24.441-6.6934-22.203-7.6172 21.141-16.197-24.602 3.0137 14.189-22.902-22.75 13.127 4.7832-25.646-16.963 20.969z"></path><path xmlns="http://www.w3.org/2000/svg" class="fill-primary" d="m65.48 21.291s-10.008 8.1373-14.432 10.738c-4.4235 2.601-10.786 4.7515-14.787 4.7734-4.0011 0.02193-6.3262-0.64258-6.3262-0.64258l-4.3125 27.635c-1.24 13.233 2.7388 22.06 8.0586 27.363 5.3198 5.3028 14.943 9.6956 19.223 10.727 4.6019-1.031 15.595-5.4238 22.57-10.727s13.709-14.131 16.6-27.363l4.3125-27.635s-2.5311 0.66451-6.5254 0.64258c-3.9942-0.021931-9.6873-2.1724-13.299-4.7734-3.6116-2.601-11.082-10.738-11.082-10.738zm-3.1348 20.1s2.7422 2.5643 6.625 4.5898c3.8828 2.0256 10.945 2.2031 10.945 2.2031l-2.4375 15.611c-0.81045 5.1926-4.1753 11.474-9.2715 15.311-5.0961 3.8369-12.775 6.5859-12.775 6.5859s-6.8223-2.749-10.721-6.5859c-3.8984-3.8369-5.3046-10.118-4.4941-15.311l2.4375-15.611s7.1177-0.17754 11.633-2.2031c4.5151-2.0256 8.0586-4.5898 8.0586-4.5898z"></path></svg>