<svg data-v-34bbb844="" xml:space="preserve" viewBox="0 0 120 120" version="1.1" xmlns:xlink="http://www.w3.org/1999/xlink" xmlns="http://www.w3.org/2000/svg" class="stat-icon-svg mx-1"><defs xmlns="http://www.w3.org/2000/svg"><radialGradient id="radialGradient" class="gradient-secondary" cx="60" cy="60" r="51.836" gradientTransform="matrix(1 0 0 1.098 0 -5.8824)" gradientUnits="userSpaceOnUse"><stop stop-opacity="0" offset="0"></stop><stop stop-opacity=".6" offset="1"></stop></radialGradient></defs><path xmlns="http://www.w3.org/2000/svg" class="fill-primary" d="m65.854 6.3223s-2.2607 1.8804-5.0605 4.1523l3.4453 32.156 15.641-23.033c-5.2931-4.1993-14.025-13.275-14.025-13.275zm-6.7969 5.5625c-4.0386 3.2346-8.894 6.9856-11.885 8.7891-1.4249 0.85924-3.0106 1.68-4.6699 2.4316l13.26 19.525zm22.805 9.168-10.283 26.232 33.313-15.744-29.074 23.805 28.445 3.6758 3.7324-32.828s-3.3465 0.88868-8.6855 0.85938c-5.1399-0.02821-12.468-2.7-17.447-6zm-42.424 3.3164c-4.1965 1.5976-8.5304 2.6659-11.758 2.6836-5.3457 0.02931-8.4883-0.85938-8.4883-0.85938l-0.78711 6.9062 30.016 14.186zm-21.15 9.7734-2.832 24.916 28.727-3.7129zm-3.0449 26.77-0.25 2.2109c-0.46754 9.101 0.85306 16.631 3.248 22.773l25.941-21.242zm88.793 0.09375-28.219 3.6484 21.576 17.666c2.8373-5.4285 5.0957-11.789 6.4004-19.197zm-55.615 11.709-29.811 14.09c2.2339 5.3609 5.294 9.6279 8.6992 12.885 2.2921 2.1923 5.1494 4.2409 8.1465 6.1035zm23.158 0 10.803 27.559c0.25833-0.19466 0.52706-0.38738 0.77734-0.58399 4.7523-3.733 9.3501-8.7894 13.102-15.309zm-15.816 4.6523-19.602 28.867c6.5042 3.9381 13.593 6.871 17.443 7.7891 1.517-0.34312 3.5524-0.96268 5.8926-1.8125zm8.4766 0-3.6895 34.436c6.1035-2.3017 13.903-5.9757 20.096-10.271z"></path><path xmlns="http://www.w3.org/2000/svg" d="m60 3.082-4.2383 39.549-21.68-31.924 14.34 36.578-33.312-15.744 29.074 23.805-36.02 4.6543 36.02 4.6543-29.074 23.805 33.312-15.744-14.34 36.578 21.68-31.924 4.2383 39.549 4.2383-39.549 21.68 31.924-14.34-36.578 33.313 15.744-29.074-23.805 36.02-4.6543-36.02-4.6543 29.074-23.805-33.313 15.744 14.34-36.578-21.68 31.924z" fill="url(#radialGradient)"></path></svg>