<svg data-v-34bbb844="" xml:space="preserve" viewBox="0 0 120 120" version="1.1" xmlns="http://www.w3.org/2000/svg" class="stat-icon-svg mx-1"><path xmlns="http://www.w3.org/2000/svg" class="fill-secondary" d="m53.924 5.5586-4.3555 23.703-17.322-16.756 5.6621 23.424-22.639-8.2617 14.699 19.098-24.043 1.6602 21.197 11.467-21.289 11.295 24.027 1.8555-14.854 18.977 22.705-8.0781-5.8516 23.379 17.457-16.615 4.1641 23.736 9.1895-22.279 13.459 19.992-0.66797-24.092 20.426 12.789-10.408-21.736 23.863 3.375-18.35-15.623 23.172-6.623-23.117-6.8086 18.475-15.475-23.889 3.1816 10.584-21.652-20.529 12.623 0.86328-24.084-13.621 19.883z"></path><path xmlns="http://www.w3.org/2000/svg" class="fill-primary" d="m62.9 10.848c-0.50191-0.0202-1.0128-0.01838-1.5312 0.0059-0.59257 0.02773-1.1956 0.08661-1.8086 0.17578-9.8082 1.4269-14.909 9.4272-13.584 19.873s13.66 19.078 13.66 19.078-17.034-11.734-25.992-9.5215c-6.348 1.5677-12.282 8.0655-13.16 14.545-0.87353 6.4441 1.6949 13.315 8.7656 17.43 7.0707 4.1149 18.025 1.4473 18.025 1.4473l-26.729 25.238 5.5078 4.2969 5.5098 4.2969 19.471-30.9s-0.28283 10.991 5.3848 16.811c5.6676 5.8198 13.113 6.7609 19.383 4.5254 6.3043-2.2477 11.526-9.3031 11.713-15.676 0.26386-8.9929-15.215-22.615-15.215-22.615s11.346 9.8342 22.107 8.8145c10.761-1.0198 17.668-7.611 16.959-17.24-0.70892-9.6292-8.9787-15.085-16.813-15.484-10.624-0.54199-20.621 9.5906-23.082 12.283 2.1625-2.9255 10.14-14.635 7.2793-24.609-1.0547-3.6775-3.4006-7.1808-6.709-9.5879-2.533-1.8429-5.6292-3.0442-9.1426-3.1855z"></path></svg>