<svg data-v-34bbb844="" xml:space="preserve" viewBox="0 0 120 120" version="1.1" xmlns="http://www.w3.org/2000/svg" class="stat-icon-svg mx-1"><path xmlns="http://www.w3.org/2000/svg" class="fill-secondary" d="m99.656 15.383-42.961 36.107a9.3673 9.3673 0 0 0-1.1445 13.199l0.5293 0.62891a9.3682 9.3682 0 0 0 13.199 1.1445l42.914-36.068-6.2695-7.5078zm-91.85 57.893v34.498h28.998l-6.9043-8.2168 8.6133-7.2402c-0.3393-0.28723-0.67848-0.56827-1.0156-0.86914-0.54246-0.4841-1.0801-0.98602-1.6152-1.5059-0.5351-0.51985-1.0682-1.0571-1.5938-1.6133-0.52555-0.55613-1.0448-1.1317-1.5586-1.7246-0.51381-0.59296-1.0216-1.2056-1.5215-1.8359-0.49988-0.63032-0.99085-1.279-1.4746-1.9473-0.48376-0.66823-0.95837-1.3539-1.4238-2.0605-0.46546-0.70667-0.92418-1.434-1.3691-2.1797-0.27369-0.45864-0.53357-0.93856-0.79883-1.4121l-8.8262 7.4199z"></path><path xmlns="http://www.w3.org/2000/svg" class="fill-primary" d="m52.729 12.227s-8.2063 9.0785-12.195 11.98c-3.989 2.902-10.306 5.2998-14.762 5.3242-4.4561 0.02447-7.291-0.7168-7.291-0.7168l5.2422 30.834c3.4306 14.764 11.079 24.611 18.943 30.527 7.8645 5.9164 20.199 10.818 25.35 11.969 4.7593-1.1503 15.428-6.0524 21.281-11.969 5.853-5.9164 10.152-15.764 8.5625-30.527l-1.8945-11.146-24.781 20.826a12.815 12.815 39.73 0 1-2.3906 1.5898 12.815 12.815 39.73 0 1-2.6816 1.0176 12.815 12.815 39.73 0 1-2.8438 0.39258 12.815 12.815 39.73 0 1-2.8574-0.24609 12.815 12.815 39.73 0 1-2.7324-0.87891 12.815 12.815 39.73 0 1-2.4688-1.4609 12.815 12.815 39.73 0 1-2.0801-1.9785l-0.72656-0.86133a12.814 12.814 42.219 0 1-1.5879-2.3906 12.814 12.814 42.219 0 1-1.0156-2.6816 12.814 12.814 42.219 0 1-0.39648-2.8438 12.814 12.814 42.219 0 1 0.24805-2.8574 12.814 12.814 42.219 0 1 0.87695-2.7324 12.814 12.814 42.219 0 1 1.4648-2.4688 12.814 12.814 42.219 0 1 1.9746-2.0801l24.512-20.602c-3.2755-0.98071-6.7094-2.4229-9.4805-4.0391-4.9757-2.902-16.27-11.98-16.27-11.98z"></path></svg>