<svg data-v-34bbb844="" xml:space="preserve" viewBox="0 0 120 120" version="1.1" xmlns="http://www.w3.org/2000/svg" class="stat-icon-svg mx-1"><path xmlns="http://www.w3.org/2000/svg" class="fill-primary" d="m59.999 13.103s-10.172 9.471-14.848 12.498c-4.6756 3.0271-11.689 5.5272-16.342 5.5527-4.6525 0.02552-7.4766-0.74609-7.4766-0.74609v32.16c0.96046 15.4 7.1932 25.674 14.348 31.846 7.1544 6.1714 19.15 11.284 24.318 12.484 5.1684-1.1999 17.166-6.313 24.32-12.484 7.1544-6.1714 13.387-16.446 14.348-31.846v-32.16s-2.8241 0.77162-7.4766 0.74609c-4.6525-0.025525-11.668-2.5257-16.344-5.5527-4.6756-3.0271-14.848-12.498-14.848-12.498zm0 23.393s3.6581 2.9825 8.5449 5.3398c4.8868 2.3574 13.139 2.5645 13.139 2.5645v18.168c0 6.0432-2.7758 13.353-8.0098 17.818-5.2339 4.4654-13.674 7.6641-13.674 7.6641s-8.4379-3.1986-13.672-7.6641c-5.2339-4.4654-8.0098-11.775-8.0098-17.818v-18.168s8.2499-0.20707 13.137-2.5645c4.8868-2.3574 8.5449-5.3398 8.5449-5.3398z"></path></svg>