<svg data-v-34bbb844="" xml:space="preserve" viewBox="0 0 120 120" version="1.1" xmlns="http://www.w3.org/2000/svg" class="stat-icon-svg mx-1"><path xmlns="http://www.w3.org/2000/svg" class="fill-secondary" transform="translate(-1.5344)" d="m89.199 18.131a16.79 19.683 47.275 0 0-21.07 18.18 16.79 19.683 47.275 0 0 15.285 18.178 16.79 19.683 47.275 0 0 21.072-18.178 16.79 19.683 47.275 0 0-15.287-18.18zm-9.002 45.471a29.456 39.5 21.237 0 0-14.217 5.0723 29.456 39.5 21.237 0 0-20.461 33.195h60.707a29.456 39.5 21.237 0 0-9.8945-33.195 29.456 39.5 21.237 0 0-16.135-5.0723z"></path><path xmlns="http://www.w3.org/2000/svg" class="fill-primary" transform="translate(-1.5344)" d="m59.916 18.131a16.79 19.683 47.275 0 0-21.07 18.18 16.79 19.683 47.275 0 0 15.283 18.178 16.79 19.683 47.275 0 0 21.074-18.178 16.79 19.683 47.275 0 0-15.287-18.18zm-9.002 45.471a29.456 39.5 21.237 0 0-14.219 5.0723 29.456 39.5 21.237 0 0-20.459 33.195h60.707a29.456 39.5 21.237 0 0-9.8945-33.195 29.456 39.5 21.237 0 0-16.135-5.0723z"></path></svg>