<svg data-v-34bbb844="" xml:space="preserve" viewBox="0 0 120 120" version="1.1" xmlns="http://www.w3.org/2000/svg" class="stat-icon-svg mx-1"><path xmlns="http://www.w3.org/2000/svg" class="fill-primary" d="m63.962 8.1289c-0.58923 0-1.1299 0.47327-1.2109 1.0625l-2.4941 18.145c-0.08102 0.58923 0.32874 1.0645 0.91797 1.0645h6.1309c0.58923 0 1.128-0.47522 1.209-1.0645l2.4961-18.145c0.08102-0.58923-0.32874-1.0625-0.91797-1.0625zm-20.145 5.1797c-0.13947 0.01718-0.28222 0.06111-0.41992 0.13476l-5.7324 3.0645c-0.5508 0.29462-0.81234 0.94284-0.58789 1.4531l6.9102 15.713c0.22445 0.51028 0.84959 0.68524 1.4004 0.39062l5.7305-3.0664c0.5508-0.29462 0.8143-0.94284 0.58984-1.4531l-6.9121-15.713c-0.16834-0.38271-0.56009-0.57498-0.97852-0.52344zm44.996 0c-0.40425-0.05154-0.85141 0.14072-1.125 0.52344l-11.232 15.713c-0.36478 0.51029-0.28032 1.1585 0.18945 1.4531l4.8887 3.0664c0.46978 0.29462 1.143 0.11966 1.5078-0.39062l11.232-15.713c0.36478-0.51029 0.27838-1.1585-0.19141-1.4531l-4.8867-3.0645c-0.11744-0.07365-0.24806-0.11759-0.38281-0.13476zm-66.539 17.195c-0.40425-0.05154-0.85141 0.14072-1.125 0.52344l-3.7949 5.3105c-0.36478 0.51029-0.28033 1.1585 0.18945 1.4531l14.465 9.0723c0.46978 0.29462 1.143 0.11966 1.5078-0.39062l3.7949-5.3086c0.36478-0.51029 0.28032-1.1585-0.18945-1.4531l-14.465-9.0723c-0.11744-0.07365-0.24806-0.11759-0.38281-0.13477zm83.352 0c-0.13948 0.01718-0.28027 0.06111-0.41797 0.13477l-16.961 9.0723c-0.5508 0.29462-0.8143 0.94284-0.58984 1.4531l2.3359 5.3086c0.22445 0.51029 0.8496 0.68524 1.4004 0.39062l16.959-9.0723c0.55079-0.29462 0.81429-0.94284 0.58984-1.4531l-2.3359-5.3105c-0.16834-0.38271-0.56205-0.57498-0.98046-0.52344zm-42.465 5.7363a21.469 24.631 46.966 0 0-26.158 22.996 21.469 24.631 46.966 0 0 19.834 22.996 21.469 24.631 46.966 0 0 26.158-22.996 21.469 24.631 46.966 0 0-19.834-22.996zm-52.639 18.867c-0.58923 0-1.128 0.47522-1.209 1.0645l-0.84375 6.1309c-0.08102 0.58923 0.32874 1.0625 0.91797 1.0625h18.143c0.58923 0 1.1299-0.47327 1.2109-1.0625l0.84375-6.1309c0.08102-0.58923-0.32874-1.0645-0.91797-1.0645zm81.945 0c-0.58923 0-1.128 0.47522-1.209 1.0645l-0.84375 6.1309c-0.08102 0.58923 0.32874 1.0625 0.91797 1.0625h18.145c0.58923 0 1.128-0.47327 1.209-1.0625l0.84375-6.1309c0.081-0.58923-0.32874-1.0645-0.91797-1.0645zm-37.148 37.652a44.929 52.609 63.666 0 0-43.504 19.111h81.895a44.929 52.609 63.666 0 0-38.391-19.111z"></path></svg>