<svg data-v-34bbb844="" xml:space="preserve" viewBox="0 0 120 120" version="1.1" xmlns="http://www.w3.org/2000/svg" class="stat-icon-svg mx-1"><path xmlns="http://www.w3.org/2000/svg" class="fill-secondary" d="m74.385 12.404c-0.18305-0.0017-0.20509 0.05786-0.04883 0.13086l5.4277 2.5332c0.24739 0.11496 0.47863 0.25296 0.69336 0.41406 0.21354 0.16092 0.4099 0.34351 0.58398 0.54492 0.17406 0.2013 0.3261 0.42103 0.45508 0.65625 0.12988 0.23522 0.23594 0.48637 0.31641 0.74805 0.07922 0.26203 0.13295 0.53278 0.16016 0.8125 0.02838 0.28029 0.02875 0.56835 0.0039 0.85742-0.02534 0.28766-0.07513 0.5764-0.15234 0.86328-0.07745 0.28805-0.18138 0.57175-0.30859 0.84961-0.12716 0.27705-0.27867 0.54687-0.45117 0.80469-0.17274 0.25888-0.36537 0.50522-0.57812 0.73633-0.11332 0.12183-0.23256 0.23935-0.35547 0.35156-0.14688 0.1341-0.1347 0.27021 0.03516 0.31641 0.0796 0.02165 0.15917 0.04409 0.23828 0.06641 6.7563 2.2479 11.216 6.9226 12.373 12.971 2.3111 12.44-9.6732 27.104-26.768 32.752-17.095 5.6477-32.825 0.14006-35.135-12.301-1.1442-6.4246 1.5195-13.766 7.3145-20.186 0.13303-0.14738 0.15155-0.368 0.050781-0.50391-0.11475-0.15476-0.21788-0.31834-0.30859-0.49024-0.18974-0.4234-0.30521-0.88496-0.34375-1.3672-0.03884-0.48245-9.87e-4 -0.97926 0.11523-1.4746 0.11623-0.49492 0.30842-0.98086 0.56836-1.4414l4.2227-7.4727c0.03969-0.07002 0.076-0.14117 0.11133-0.21289 0.03488-0.07191 0.06732-0.14352 0.09766-0.2168 0.03074-0.07293 0.05982-0.14671 0.08594-0.2207 0.02574-0.07395 0.04929-0.14797 0.07031-0.22266 0.02163-0.07496 0.03986-0.15115 0.05664-0.22656 0.01647-0.07513 0.03139-0.14936 0.04297-0.22461 0.0113-0.0753 0.02098-0.15149 0.02734-0.22656 7e-3 -0.07544 0.01167-0.14968 0.01367-0.22461 8.34e-4 -0.07478-0.0017-0.14879-0.0059-0.22266-0.0018-0.03382-5e-3 -0.06799-0.0078-0.10156-0.89313 0.51027-1.7715 1.0406-2.6348 1.5898-15.019 10.021-23.303 24.73-20.98 37.248 3.1696 17.063 24.747 24.616 48.193 16.869 23.447-7.7458 39.886-27.858 36.717-44.922-1.9774-10.447-11.089-17.77-24.213-19.461-1.8395-0.24701-3.7382-0.37883-5.6836-0.39648z"></path><path xmlns="http://www.w3.org/2000/svg" class="fill-primary" d="m65.426 3.1953a0.54288 0.63919 47.337 0 0-0.40234 0.19336l-7.9395 7.5898a2.0925 2.4637 47.337 0 1-1.9805 0.76172l-9.9883-0.68359a0.54288 0.63919 47.337 0 0-0.69141 0.88672l3.7207 8.7188a2.0925 2.4637 47.337 0 1-0.17578 2l-5.3066 9.3945a0.54288 0.63919 47.337 0 0 0.54492 0.79297l10.24-2.1992a2.0925 2.4637 47.337 0 1 1.873 0.47266l6.707 6.4902a0.54288 0.63919 47.337 0 0 1.0293-0.39648l2.6074-10.078a2.0925 2.4637 47.337 0 1 1.332-1.707l9.4531-5.3828a0.54288 0.63919 47.337 0 0 0.0918-1.041l-8.6289-4.0273a2.0925 2.4637 47.337 0 1-1.0488-1.5273l-0.86719-9.8184a0.54288 0.63919 47.337 0 0-0.57031-0.43945zm-0.0957 42.479a19.877 23.404 47.337 0 0-25.094 21.568 19.877 23.404 47.337 0 0 18.041 21.568 19.877 23.404 47.337 0 0 25.096-21.568 19.877 23.404 47.337 0 0-18.043-21.568zm-8.7344 53.012a41.696 49.869 61.819 0 0-41.268 17.926h76.809a41.696 49.869 61.819 0 0-35.541-17.926z"></path></svg>