<svg data-v-34bbb844="" xml:space="preserve" viewBox="0 0 120 120" version="1.1" xmlns="http://www.w3.org/2000/svg" class="stat-icon-svg mx-1"><path xmlns="http://www.w3.org/2000/svg" class="fill-secondary" d="m21.307 31.975c-2.5964 6.1042-5.1927 12.208-7.7891 18.312h26.795c-0.44987-6.1042-0.89974-12.208-1.3496-18.312h-17.656zm67.459 0c-2.5964 6.1042-5.1927 12.208-7.7891 18.312h26.795c-0.44987-6.1042-0.89973-12.208-1.3496-18.312h-17.656z"></path><path xmlns="http://www.w3.org/2000/svg" class="fill-primary" d="m67.457 11.547c-0.84502 1.38e-4 -1.7386 0.27322-2.4453 0.82031-0.04931 0.03817-0.09884 0.07642-0.14844 0.11523-1.1976 0.93724-3.1113 3.0195-3.1113 3.0195l-2.2891 7.373h-31.436l-1.168 6.6406h31.436l-12.107 68.855h-15.248l-1.7734 10.082h42.5l1.7715-10.082h-15.246l12.107-68.855h31.436l1.168-6.6406h-31.436l0.30469-7.373s-1.1827-2.0824-2.0508-3.0195c-0.03621-0.03909-0.07129-0.07681-0.10742-0.11523-0.51416-0.54685-1.3112-0.82045-2.1562-0.82031zm-61.502 41.514c-1.2862 7.314 1.4281 14.072 7.1191 17.729 5.6919 3.657 13.493 3.657 20.471 0 6.9771-3.6572 12.069-10.414 13.355-17.729h-20.473zm67.459 0c-1.2862 7.314 1.4282 14.071 7.1191 17.729 5.6911 3.657 13.495 3.657 20.473 0 6.9772-3.657 12.067-10.414 13.354-17.729h-20.473z"></path></svg>